<svg xmlns="http://www.w3.org/2000/svg" viewBox="0 0 400 400" width="400" height="400">
  <!-- constellation lines -->
  <line x1="188" y1="162" x2="232" y2="178" stroke="rgba(20,21,22,0.55)" stroke-width="2"/>
    <line x1="188" y1="162" x2="208" y2="208" stroke="rgba(20,21,22,0.55)" stroke-width="2"/>
    <line x1="232" y1="178" x2="268" y2="232" stroke="rgba(20,21,22,0.55)" stroke-width="2"/>
    <line x1="208" y1="208" x2="178" y2="228" stroke="rgba(20,21,22,0.55)" stroke-width="2"/>
    <line x1="178" y1="228" x2="165" y2="258" stroke="rgba(20,21,22,0.55)" stroke-width="2"/>
    <line x1="165" y1="258" x2="188" y2="275" stroke="rgba(20,21,22,0.55)" stroke-width="2"/>
    <line x1="188" y1="275" x2="210" y2="290" stroke="rgba(20,21,22,0.55)" stroke-width="2"/>
    <line x1="210" y1="290" x2="232" y2="305" stroke="rgba(20,21,22,0.55)" stroke-width="2"/>
    <line x1="232" y1="305" x2="220" y2="325" stroke="rgba(20,21,22,0.55)" stroke-width="2"/>
    <line x1="220" y1="325" x2="250" y2="335" stroke="rgba(20,21,22,0.55)" stroke-width="2"/>
    <line x1="208" y1="208" x2="268" y2="232" stroke="rgba(20,21,22,0.55)" stroke-width="2"/>
  <!-- constellation stars -->
  <circle cx="188" cy="162" r="12" fill="rgba(20,21,22,0.12)"/>
    <circle cx="188" cy="162" r="5.6" fill="rgba(20,21,22,0.88)"/>
    <circle cx="232" cy="178" r="12" fill="rgba(20,21,22,0.12)"/>
    <circle cx="232" cy="178" r="5.6" fill="rgba(20,21,22,0.88)"/>
    <circle cx="268" cy="232" r="10.5" fill="rgba(20,21,22,0.12)"/>
    <circle cx="268" cy="232" r="4.8999999999999995" fill="rgba(20,21,22,0.88)"/>
    <circle cx="208" cy="208" r="10.5" fill="rgba(20,21,22,0.12)"/>
    <circle cx="208" cy="208" r="4.8999999999999995" fill="rgba(20,21,22,0.88)"/>
    <circle cx="178" cy="228" r="9" fill="rgba(20,21,22,0.12)"/>
    <circle cx="178" cy="228" r="4.199999999999999" fill="rgba(20,21,22,0.88)"/>
    <circle cx="165" cy="258" r="9" fill="rgba(20,21,22,0.12)"/>
    <circle cx="165" cy="258" r="4.199999999999999" fill="rgba(20,21,22,0.88)"/>
    <circle cx="188" cy="275" r="9" fill="rgba(20,21,22,0.12)"/>
    <circle cx="188" cy="275" r="4.199999999999999" fill="rgba(20,21,22,0.88)"/>
    <circle cx="210" cy="290" r="9" fill="rgba(20,21,22,0.12)"/>
    <circle cx="210" cy="290" r="4.199999999999999" fill="rgba(20,21,22,0.88)"/>
    <circle cx="232" cy="305" r="8.399999999999999" fill="rgba(20,21,22,0.12)"/>
    <circle cx="232" cy="305" r="3.9199999999999995" fill="rgba(20,21,22,0.88)"/>
    <circle cx="220" cy="325" r="7.5" fill="rgba(20,21,22,0.12)"/>
    <circle cx="220" cy="325" r="3.5" fill="rgba(20,21,22,0.88)"/>
    <circle cx="250" cy="335" r="7.5" fill="rgba(20,21,22,0.12)"/>
    <circle cx="250" cy="335" r="3.5" fill="rgba(20,21,22,0.88)"/>
</svg>