<svg xmlns="http://www.w3.org/2000/svg" viewBox="0 0 400 400" width="400" height="400">
  <!-- constellation lines -->
  <line x1="118" y1="245" x2="138" y2="202" stroke="rgba(20,21,22,0.55)" stroke-width="2"/>
    <line x1="138" y1="202" x2="165" y2="172" stroke="rgba(20,21,22,0.55)" stroke-width="2"/>
    <line x1="165" y1="172" x2="205" y2="162" stroke="rgba(20,21,22,0.55)" stroke-width="2"/>
    <line x1="205" y1="162" x2="238" y2="175" stroke="rgba(20,21,22,0.55)" stroke-width="2"/>
    <line x1="238" y1="175" x2="258" y2="202" stroke="rgba(20,21,22,0.55)" stroke-width="2"/>
    <line x1="258" y1="202" x2="118" y2="245" stroke="rgba(20,21,22,0.55)" stroke-width="2"/>
    <line x1="205" y1="162" x2="250" y2="168" stroke="rgba(20,21,22,0.55)" stroke-width="2"/>
    <line x1="250" y1="168" x2="238" y2="175" stroke="rgba(20,21,22,0.55)" stroke-width="2"/>
    <line x1="310" y1="212" x2="278" y2="248" stroke="rgba(20,21,22,0.55)" stroke-width="2"/>
    <line x1="278" y1="248" x2="285" y2="235" stroke="rgba(20,21,22,0.55)" stroke-width="2"/>
    <line x1="285" y1="235" x2="310" y2="212" stroke="rgba(20,21,22,0.55)" stroke-width="2"/>
    <line x1="278" y1="248" x2="258" y2="202" stroke="rgba(20,21,22,0.55)" stroke-width="2"/>
  <!-- constellation stars -->
  <circle cx="118" cy="245" r="19.5" fill="rgba(20,21,22,0.12)"/>
    <circle cx="118" cy="245" r="9.1" fill="rgba(20,21,22,0.88)"/>
    <circle cx="138" cy="202" r="10.5" fill="rgba(20,21,22,0.12)"/>
    <circle cx="138" cy="202" r="4.8999999999999995" fill="rgba(20,21,22,0.88)"/>
    <circle cx="165" cy="172" r="13.5" fill="rgba(20,21,22,0.12)"/>
    <circle cx="165" cy="172" r="6.3" fill="rgba(20,21,22,0.88)"/>
    <circle cx="205" cy="162" r="11.399999999999999" fill="rgba(20,21,22,0.12)"/>
    <circle cx="205" cy="162" r="5.319999999999999" fill="rgba(20,21,22,0.88)"/>
    <circle cx="238" cy="175" r="11.399999999999999" fill="rgba(20,21,22,0.12)"/>
    <circle cx="238" cy="175" r="5.319999999999999" fill="rgba(20,21,22,0.88)"/>
    <circle cx="258" cy="202" r="10.5" fill="rgba(20,21,22,0.12)"/>
    <circle cx="258" cy="202" r="4.8999999999999995" fill="rgba(20,21,22,0.88)"/>
    <circle cx="250" cy="168" r="10.5" fill="rgba(20,21,22,0.12)"/>
    <circle cx="250" cy="168" r="4.8999999999999995" fill="rgba(20,21,22,0.88)"/>
    <circle cx="310" cy="212" r="12" fill="rgba(20,21,22,0.12)"/>
    <circle cx="310" cy="212" r="5.6" fill="rgba(20,21,22,0.88)"/>
    <circle cx="278" cy="248" r="10.5" fill="rgba(20,21,22,0.12)"/>
    <circle cx="278" cy="248" r="4.8999999999999995" fill="rgba(20,21,22,0.88)"/>
    <circle cx="285" cy="235" r="9" fill="rgba(20,21,22,0.12)"/>
    <circle cx="285" cy="235" r="4.199999999999999" fill="rgba(20,21,22,0.88)"/>
</svg>