<svg xmlns="http://www.w3.org/2000/svg" viewBox="0 0 400 400" width="400" height="400">
  <!-- constellation lines -->
  <line x1="268" y1="138" x2="288" y2="155" stroke="rgba(20,21,22,0.55)" stroke-width="2"/>
    <line x1="288" y1="155" x2="295" y2="175" stroke="rgba(20,21,22,0.55)" stroke-width="2"/>
    <line x1="295" y1="175" x2="285" y2="195" stroke="rgba(20,21,22,0.55)" stroke-width="2"/>
    <line x1="285" y1="195" x2="268" y2="205" stroke="rgba(20,21,22,0.55)" stroke-width="2"/>
    <line x1="268" y1="205" x2="248" y2="198" stroke="rgba(20,21,22,0.55)" stroke-width="2"/>
    <line x1="248" y1="198" x2="238" y2="178" stroke="rgba(20,21,22,0.55)" stroke-width="2"/>
    <line x1="238" y1="178" x2="248" y2="158" stroke="rgba(20,21,22,0.55)" stroke-width="2"/>
    <line x1="248" y1="158" x2="268" y2="138" stroke="rgba(20,21,22,0.55)" stroke-width="2"/>
    <line x1="268" y1="205" x2="200" y2="235" stroke="rgba(20,21,22,0.55)" stroke-width="2"/>
    <line x1="200" y1="235" x2="152" y2="255" stroke="rgba(20,21,22,0.55)" stroke-width="2"/>
    <line x1="152" y1="255" x2="135" y2="270" stroke="rgba(20,21,22,0.55)" stroke-width="2"/>
    <line x1="135" y1="270" x2="128" y2="290" stroke="rgba(20,21,22,0.55)" stroke-width="2"/>
    <line x1="128" y1="290" x2="138" y2="308" stroke="rgba(20,21,22,0.55)" stroke-width="2"/>
    <line x1="138" y1="308" x2="155" y2="316" stroke="rgba(20,21,22,0.55)" stroke-width="2"/>
    <line x1="155" y1="316" x2="172" y2="310" stroke="rgba(20,21,22,0.55)" stroke-width="2"/>
    <line x1="172" y1="310" x2="180" y2="295" stroke="rgba(20,21,22,0.55)" stroke-width="2"/>
    <line x1="180" y1="295" x2="172" y2="278" stroke="rgba(20,21,22,0.55)" stroke-width="2"/>
    <line x1="172" y1="278" x2="152" y2="255" stroke="rgba(20,21,22,0.55)" stroke-width="2"/>
  <!-- constellation stars -->
  <circle cx="268" cy="138" r="7.5" fill="rgba(20,21,22,0.12)"/>
    <circle cx="268" cy="138" r="3.5" fill="rgba(20,21,22,0.88)"/>
    <circle cx="288" cy="155" r="9" fill="rgba(20,21,22,0.12)"/>
    <circle cx="288" cy="155" r="4.199999999999999" fill="rgba(20,21,22,0.88)"/>
    <circle cx="295" cy="175" r="7.5" fill="rgba(20,21,22,0.12)"/>
    <circle cx="295" cy="175" r="3.5" fill="rgba(20,21,22,0.88)"/>
    <circle cx="285" cy="195" r="7.5" fill="rgba(20,21,22,0.12)"/>
    <circle cx="285" cy="195" r="3.5" fill="rgba(20,21,22,0.88)"/>
    <circle cx="268" cy="205" r="10.5" fill="rgba(20,21,22,0.12)"/>
    <circle cx="268" cy="205" r="4.8999999999999995" fill="rgba(20,21,22,0.88)"/>
    <circle cx="248" cy="198" r="7.5" fill="rgba(20,21,22,0.12)"/>
    <circle cx="248" cy="198" r="3.5" fill="rgba(20,21,22,0.88)"/>
    <circle cx="238" cy="178" r="7.5" fill="rgba(20,21,22,0.12)"/>
    <circle cx="238" cy="178" r="3.5" fill="rgba(20,21,22,0.88)"/>
    <circle cx="248" cy="158" r="7.5" fill="rgba(20,21,22,0.12)"/>
    <circle cx="248" cy="158" r="3.5" fill="rgba(20,21,22,0.88)"/>
    <circle cx="200" cy="235" r="10.5" fill="rgba(20,21,22,0.12)"/>
    <circle cx="200" cy="235" r="4.8999999999999995" fill="rgba(20,21,22,0.88)"/>
    <circle cx="152" cy="255" r="7.5" fill="rgba(20,21,22,0.12)"/>
    <circle cx="152" cy="255" r="3.5" fill="rgba(20,21,22,0.88)"/>
    <circle cx="135" cy="270" r="7.5" fill="rgba(20,21,22,0.12)"/>
    <circle cx="135" cy="270" r="3.5" fill="rgba(20,21,22,0.88)"/>
    <circle cx="128" cy="290" r="7.5" fill="rgba(20,21,22,0.12)"/>
    <circle cx="128" cy="290" r="3.5" fill="rgba(20,21,22,0.88)"/>
    <circle cx="138" cy="308" r="7.5" fill="rgba(20,21,22,0.12)"/>
    <circle cx="138" cy="308" r="3.5" fill="rgba(20,21,22,0.88)"/>
    <circle cx="155" cy="316" r="9" fill="rgba(20,21,22,0.12)"/>
    <circle cx="155" cy="316" r="4.199999999999999" fill="rgba(20,21,22,0.88)"/>
    <circle cx="172" cy="310" r="7.5" fill="rgba(20,21,22,0.12)"/>
    <circle cx="172" cy="310" r="3.5" fill="rgba(20,21,22,0.88)"/>
    <circle cx="180" cy="295" r="7.5" fill="rgba(20,21,22,0.12)"/>
    <circle cx="180" cy="295" r="3.5" fill="rgba(20,21,22,0.88)"/>
    <circle cx="172" cy="278" r="7.5" fill="rgba(20,21,22,0.12)"/>
    <circle cx="172" cy="278" r="3.5" fill="rgba(20,21,22,0.88)"/>
</svg>