<svg xmlns="http://www.w3.org/2000/svg" viewBox="0 0 400 400" width="400" height="400">
  <!-- constellation lines -->
  <line x1="148" y1="158" x2="165" y2="142" stroke="rgba(20,21,22,0.55)" stroke-width="2"/>
    <line x1="148" y1="158" x2="175" y2="168" stroke="rgba(20,21,22,0.55)" stroke-width="2"/>
    <line x1="175" y1="168" x2="200" y2="185" stroke="rgba(20,21,22,0.55)" stroke-width="2"/>
    <line x1="200" y1="185" x2="235" y2="192" stroke="rgba(20,21,22,0.55)" stroke-width="2"/>
    <line x1="235" y1="192" x2="252" y2="210" stroke="rgba(20,21,22,0.55)" stroke-width="2"/>
    <line x1="252" y1="210" x2="258" y2="232" stroke="rgba(20,21,22,0.55)" stroke-width="2"/>
    <line x1="258" y1="232" x2="252" y2="255" stroke="rgba(20,21,22,0.55)" stroke-width="2"/>
    <line x1="252" y1="255" x2="240" y2="278" stroke="rgba(20,21,22,0.55)" stroke-width="2"/>
    <line x1="240" y1="278" x2="222" y2="296" stroke="rgba(20,21,22,0.55)" stroke-width="2"/>
    <line x1="222" y1="296" x2="205" y2="310" stroke="rgba(20,21,22,0.55)" stroke-width="2"/>
    <line x1="205" y1="310" x2="188" y2="320" stroke="rgba(20,21,22,0.55)" stroke-width="2"/>
    <line x1="188" y1="320" x2="172" y2="322" stroke="rgba(20,21,22,0.55)" stroke-width="2"/>
    <line x1="188" y1="320" x2="160" y2="312" stroke="rgba(20,21,22,0.55)" stroke-width="2"/>
  <!-- constellation stars -->
  <circle cx="175" cy="168" r="10.5" fill="rgba(20,21,22,0.12)"/>
    <circle cx="175" cy="168" r="4.8999999999999995" fill="rgba(20,21,22,0.88)"/>
    <circle cx="200" cy="185" r="24" fill="rgba(20,21,22,0.12)"/>
    <circle cx="200" cy="185" r="11.2" fill="rgba(20,21,22,0.88)"/>
    <circle cx="235" cy="192" r="10.5" fill="rgba(20,21,22,0.12)"/>
    <circle cx="235" cy="192" r="4.8999999999999995" fill="rgba(20,21,22,0.88)"/>
    <circle cx="252" cy="210" r="12" fill="rgba(20,21,22,0.12)"/>
    <circle cx="252" cy="210" r="5.6" fill="rgba(20,21,22,0.88)"/>
    <circle cx="258" cy="232" r="10.5" fill="rgba(20,21,22,0.12)"/>
    <circle cx="258" cy="232" r="4.8999999999999995" fill="rgba(20,21,22,0.88)"/>
    <circle cx="252" cy="255" r="10.5" fill="rgba(20,21,22,0.12)"/>
    <circle cx="252" cy="255" r="4.8999999999999995" fill="rgba(20,21,22,0.88)"/>
    <circle cx="240" cy="278" r="10.5" fill="rgba(20,21,22,0.12)"/>
    <circle cx="240" cy="278" r="4.8999999999999995" fill="rgba(20,21,22,0.88)"/>
    <circle cx="222" cy="296" r="10.5" fill="rgba(20,21,22,0.12)"/>
    <circle cx="222" cy="296" r="4.8999999999999995" fill="rgba(20,21,22,0.88)"/>
    <circle cx="205" cy="310" r="12" fill="rgba(20,21,22,0.12)"/>
    <circle cx="205" cy="310" r="5.6" fill="rgba(20,21,22,0.88)"/>
    <circle cx="188" cy="320" r="13.5" fill="rgba(20,21,22,0.12)"/>
    <circle cx="188" cy="320" r="6.3" fill="rgba(20,21,22,0.88)"/>
    <circle cx="172" cy="322" r="15" fill="rgba(20,21,22,0.12)"/>
    <circle cx="172" cy="322" r="7" fill="rgba(20,21,22,0.88)"/>
    <circle cx="160" cy="312" r="12" fill="rgba(20,21,22,0.12)"/>
    <circle cx="160" cy="312" r="5.6" fill="rgba(20,21,22,0.88)"/>
    <circle cx="148" cy="158" r="10.5" fill="rgba(20,21,22,0.12)"/>
    <circle cx="148" cy="158" r="4.8999999999999995" fill="rgba(20,21,22,0.88)"/>
    <circle cx="165" cy="142" r="9" fill="rgba(20,21,22,0.12)"/>
    <circle cx="165" cy="142" r="4.199999999999999" fill="rgba(20,21,22,0.88)"/>
</svg>