<svg xmlns="http://www.w3.org/2000/svg" viewBox="0 0 400 400" width="400" height="400">
  <!-- constellation lines -->
  <line x1="178" y1="195" x2="198" y2="215" stroke="rgba(20,21,22,0.55)" stroke-width="2"/>
    <line x1="198" y1="215" x2="220" y2="232" stroke="rgba(20,21,22,0.55)" stroke-width="2"/>
    <line x1="220" y1="232" x2="205" y2="207" stroke="rgba(20,21,22,0.55)" stroke-width="2"/>
    <line x1="205" y1="207" x2="172" y2="220" stroke="rgba(20,21,22,0.55)" stroke-width="2"/>
    <line x1="220" y1="232" x2="265" y2="148" stroke="rgba(20,21,22,0.55)" stroke-width="2"/>
    <line x1="265" y1="148" x2="295" y2="172" stroke="rgba(20,21,22,0.55)" stroke-width="2"/>
    <line x1="178" y1="195" x2="130" y2="150" stroke="rgba(20,21,22,0.55)" stroke-width="2"/>
  <!-- constellation stars -->
  <circle cx="220" cy="232" r="19.5" fill="rgba(20,21,22,0.12)"/>
    <circle cx="220" cy="232" r="9.1" fill="rgba(20,21,22,0.88)"/>
    <circle cx="198" cy="215" r="10.5" fill="rgba(20,21,22,0.12)"/>
    <circle cx="198" cy="215" r="4.8999999999999995" fill="rgba(20,21,22,0.88)"/>
    <circle cx="178" cy="195" r="12" fill="rgba(20,21,22,0.12)"/>
    <circle cx="178" cy="195" r="5.6" fill="rgba(20,21,22,0.88)"/>
    <circle cx="172" cy="220" r="10.5" fill="rgba(20,21,22,0.12)"/>
    <circle cx="172" cy="220" r="4.8999999999999995" fill="rgba(20,21,22,0.88)"/>
    <circle cx="205" cy="207" r="9" fill="rgba(20,21,22,0.12)"/>
    <circle cx="205" cy="207" r="4.199999999999999" fill="rgba(20,21,22,0.88)"/>
    <circle cx="265" cy="148" r="13.5" fill="rgba(20,21,22,0.12)"/>
    <circle cx="265" cy="148" r="6.3" fill="rgba(20,21,22,0.88)"/>
    <circle cx="295" cy="172" r="10.5" fill="rgba(20,21,22,0.12)"/>
    <circle cx="295" cy="172" r="4.8999999999999995" fill="rgba(20,21,22,0.88)"/>
    <circle cx="130" cy="150" r="10.5" fill="rgba(20,21,22,0.12)"/>
    <circle cx="130" cy="150" r="4.8999999999999995" fill="rgba(20,21,22,0.88)"/>
    <circle cx="118" cy="136" r="7.5" fill="rgba(20,21,22,0.12)"/>
    <circle cx="118" cy="136" r="3.5" fill="rgba(20,21,22,0.88)"/>
    <circle cx="140" cy="140" r="7.5" fill="rgba(20,21,22,0.12)"/>
    <circle cx="140" cy="140" r="3.5" fill="rgba(20,21,22,0.88)"/>
    <circle cx="127" cy="158" r="6.6000000000000005" fill="rgba(20,21,22,0.12)"/>
    <circle cx="127" cy="158" r="3.08" fill="rgba(20,21,22,0.88)"/>
    <circle cx="138" cy="162" r="6" fill="rgba(20,21,22,0.12)"/>
    <circle cx="138" cy="162" r="2.8" fill="rgba(20,21,22,0.88)"/>
</svg>