<svg xmlns="http://www.w3.org/2000/svg" viewBox="0 0 400 400" width="400" height="400">
  <!-- constellation lines -->
  <line x1="255" y1="302" x2="210" y2="232" stroke="rgba(20,21,22,0.55)" stroke-width="2"/>
    <line x1="210" y1="232" x2="178" y2="195" stroke="rgba(20,21,22,0.55)" stroke-width="2"/>
    <line x1="178" y1="195" x2="145" y2="158" stroke="rgba(20,21,22,0.55)" stroke-width="2"/>
    <line x1="178" y1="195" x2="185" y2="165" stroke="rgba(20,21,22,0.55)" stroke-width="2"/>
    <line x1="185" y1="165" x2="220" y2="182" stroke="rgba(20,21,22,0.55)" stroke-width="2"/>
    <line x1="220" y1="182" x2="210" y2="232" stroke="rgba(20,21,22,0.55)" stroke-width="2"/>
    <line x1="220" y1="182" x2="268" y2="200" stroke="rgba(20,21,22,0.55)" stroke-width="2"/>
    <line x1="268" y1="200" x2="290" y2="245" stroke="rgba(20,21,22,0.55)" stroke-width="2"/>
    <line x1="290" y1="245" x2="255" y2="302" stroke="rgba(20,21,22,0.55)" stroke-width="2"/>
    <line x1="210" y1="232" x2="145" y2="228" stroke="rgba(20,21,22,0.55)" stroke-width="2"/>
  <!-- constellation stars -->
  <circle cx="255" cy="302" r="21" fill="rgba(20,21,22,0.12)"/>
    <circle cx="255" cy="302" r="9.799999999999999" fill="rgba(20,21,22,0.88)"/>
    <circle cx="210" cy="232" r="13.5" fill="rgba(20,21,22,0.12)"/>
    <circle cx="210" cy="232" r="6.3" fill="rgba(20,21,22,0.88)"/>
    <circle cx="178" cy="195" r="12" fill="rgba(20,21,22,0.12)"/>
    <circle cx="178" cy="195" r="5.6" fill="rgba(20,21,22,0.88)"/>
    <circle cx="145" cy="158" r="13.5" fill="rgba(20,21,22,0.12)"/>
    <circle cx="145" cy="158" r="6.3" fill="rgba(20,21,22,0.88)"/>
    <circle cx="185" cy="165" r="10.5" fill="rgba(20,21,22,0.12)"/>
    <circle cx="185" cy="165" r="4.8999999999999995" fill="rgba(20,21,22,0.88)"/>
    <circle cx="220" cy="182" r="12" fill="rgba(20,21,22,0.12)"/>
    <circle cx="220" cy="182" r="5.6" fill="rgba(20,21,22,0.88)"/>
    <circle cx="268" cy="200" r="10.5" fill="rgba(20,21,22,0.12)"/>
    <circle cx="268" cy="200" r="4.8999999999999995" fill="rgba(20,21,22,0.88)"/>
    <circle cx="290" cy="245" r="10.5" fill="rgba(20,21,22,0.12)"/>
    <circle cx="290" cy="245" r="4.8999999999999995" fill="rgba(20,21,22,0.88)"/>
    <circle cx="145" cy="228" r="10.5" fill="rgba(20,21,22,0.12)"/>
    <circle cx="145" cy="228" r="4.8999999999999995" fill="rgba(20,21,22,0.88)"/>
</svg>